PathFileType	4	(X/Y/Z)	Patient4_TMGait_0pt5_01_left_02.trc.trc
DataRate	CameraRate	NumFrames	NumMarkers	Units	OrigDataRate	OrigDataStartFrame	OrigNumFrames
76.086956521739	76.086956521739	4	33	mm	76.086956521739	18	       141
Frame#	Time	L.ASIS			Sacral			L.Shoulder			Chest			R.Shoulder			Neck			R.ASIS			R.Thigh.Superior			R.Thigh.Lateral			R.Thigh.Inferior			R.Patella			L.Thigh.Superior			L.Thigh.Lateral			L.Thigh.Inferior			L.Patella			L.Shank.Superior			L.Shank.Lateral			L.Shank.Inferior			R.Shank.Superior			R.Shank.Lateral			R.Shank.Inferior			R.Heel			R.Midfoot.Superior			R.Midfoot.Lateral			R.Toe			L.Heel			L.Midfoot.Lateral			L.Midfoot.Superior			L.Toe			L.Elbow			L.Wrist			R.Elbow			R.Wrist			
		X1	Y1	Z1	X2	Y2	Z2	X3	Y3	Z3	X4	Y4	Z4	X5	Y5	Z5	X6	Y6	Z6	X7	Y7	Z7	X8	Y8	Z8	X9	Y9	Z9	X10	Y10	Z10	X11	Y11	Z11	X12	Y12	Z12	X13	Y13	Z13	X14	Y14	Z14	X15	Y15	Z15	X16	Y16	Z16	X17	Y17	Z17	X18	Y18	Z18	X19	Y19	Z19	X20	Y20	Z20	X21	Y21	Z21	X22	Y22	Z22	X23	Y23	Z23	X24	Y24	Z24	X25	Y25	Z25	X26	Y26	Z26	X27	Y27	Z27	X28	Y28	Z28	X29	Y29	Z29	X30	Y30	Z30	X31	Y31	Z31	X32	Y32	Z32	X33	Y33	Z33	

18	2.743428571429	737.868865308850	967.605875930309	353.718782782819	548.105120387523	1012.249474902201	539.902086196230	706.138240429236	1434.340343557582	337.139783294364	828.227803868494	1361.767843090167	483.711174017878	771.064105838466	1440.725332411219	667.227794950730	726.616997363570	1496.083794407134	486.504373436623	784.722304489055	935.295587154447	623.792512220556	796.908904979553	727.934834808210	586.506342520910	708.534145853913	629.111736300419	654.997638343252	764.281446703464	568.857166738380	565.682214628468	751.739096040142	481.629716455876	571.128339899527	811.868512771777	778.772276461230	383.004266989442	762.249510577994	655.093173250010	307.639700588050	857.259755923045	590.276970726005	376.824372593816	884.849503559819	528.448671179373	373.718676286068	872.783928539539	458.642989526296	360.473529527584	819.238897339768	325.178728125639	303.629257036367	909.636566476905	231.738846291855	363.937317776515	717.003372245661	395.965270739230	579.595866543776	640.682950398152	298.014361314374	643.247497730245	668.740079638118	201.381397499026	577.236483880356	520.121107792705	42.981891813986	548.892589706828	691.460602215908	96.235864390008	583.720381037131	603.239288623387	36.152359518111	623.548483918832	811.271639499136	43.499895144190	613.508856169966	837.551020266783	42.766848826860	396.651685302626	917.149374427899	53.765047418958	322.560235842757	977.480346989551	139.392957103379	345.738551074686	1115.092861800212	125.518822209688	331.380607674737	601.940816115596	1092.622956968889	231.487160229109	600.764252683936	833.399385322399	214.884192075426	825.408191175329	1105.257858122645	793.811707820041	1060.674075622576	1034.370972206370	724.661277203097	
19	2.756571428571	738.267279330322	966.427214352153	352.947778082064	548.589939142585	1011.631401876621	539.086565556523	706.542932588265	1433.646053372278	335.976762152383	828.623150575136	1360.925124362823	482.419595346148	771.673931014434	1439.983003212610	665.923401811715	727.164762330827	1495.333326006132	485.322823547659	784.895404779147	934.809067295347	623.190179967527	795.464876470316	726.969625896004	586.483724378127	706.086310591057	628.547296610015	654.812289511021	761.557898563711	567.866967581119	565.792194449289	748.328397959708	480.744106241095	571.171927539717	812.184237055245	777.815355266745	382.188824793249	761.758927548756	653.575420652364	307.689518226144	857.461948206045	589.306131423573	375.867290117501	884.744994667290	527.584697371649	373.413909778485	873.087435535469	457.775900377681	360.537962872345	820.113222761763	324.019802587177	304.478012477381	911.111178373773	231.382574478385	364.748216860342	712.922605533168	395.341867442588	579.533225647982	635.925115685696	297.992289796678	643.257169865889	663.166225265416	201.095780486862	577.251952811781	513.598492662715	43.125475300305	548.963728222084	685.027670935511	96.154700417089	583.821685898175	596.711835432052	36.117633205919	623.482808800274	804.780198183240	43.116324024697	613.593697168832	839.766048035090	43.159972919931	398.378993076002	919.196041674478	53.394332071308	324.155612290479	979.747503185567	138.700749140960	346.789626637560	1117.090866732433	124.190561026617	332.463462754574	600.225888386861	1092.784800832070	230.404515466353	600.118431107061	833.411870414196	214.941698809902	830.511867153331	1103.950385826699	788.788424629391	1066.470575224329	1040.234211414479	716.429035287899	
20	2.769714285714	739.108674677538	965.033132145525	352.117624285510	549.243723865250	1010.809778665447	537.889189702436	706.936914521315	1432.874785295066	334.684760461496	828.970533794736	1360.070872015151	481.065409331755	772.054329118304	1439.117890203045	664.539570103379	727.563723971289	1494.487434466783	484.054793469163	785.239483025369	934.301971728723	622.576540762795	794.095353716322	725.951986603352	586.514813912340	703.589109031872	627.976755675399	654.606810252983	758.894216783258	566.828599876642	565.998057896501	744.895828131950	479.820250408189	571.241258658264	813.232153981724	776.762694872000	381.204758554672	761.635150375233	651.748311457239	307.918364068370	858.211520385461	588.144920640072	374.852245357305	884.968075002824	526.179992868540	373.113085122679	873.331624149374	456.180398187762	360.680555997122	819.892604001071	322.521193113473	305.501045554050	910.864385557148	230.031737018171	365.646887868681	708.822870686571	394.696059408374	579.493341535216	631.099806342294	297.978709062760	643.272719573406	657.559165998185	200.807287424925	577.285200328914	507.037892465441	43.246453609256	549.039004989764	678.557920789105	96.072909184884	583.938763546361	590.148077129485	36.066077333197	623.419395880564	798.248373513642	42.736425224627	613.682033875681	838.898232881746	43.173855888932	400.155057872012	918.062874815923	52.302421070531	325.624762673163	979.529857504602	136.701388841631	347.846161567484	1116.452511744641	120.521569119572	333.146526919096	598.563368940307	1092.872877437413	229.190321874813	600.307094732045	833.278046619339	214.865890389189	835.409518748893	1102.560488960590	783.517613647258	1071.781185902451	1045.307716818893	708.221177855535	
21	2.782857142857	740.400041816270	963.408870906163	351.234833161103	550.081463063135	1009.784178308622	536.328214407696	707.330447496738	1432.007841181031	333.247990261942	829.280655343593	1359.202201652877	479.640151117701	772.201380126066	1438.125622575747	663.065870787872	727.810483034470	1493.538238641162	482.681471994670	785.778949877590	933.752838397701	621.957455868930	792.842998846484	724.867959811568	586.606402285398	701.071222564444	627.401224160466	654.377315272473	756.311348753118	565.738963816262	566.293133763974	741.445121242800	478.851755623900	571.319456337165	814.893561555573	775.513583599078	380.098846130132	761.818286271356	649.620245447122	308.257116270222	859.361374837837	586.739444776722	373.843171443425	885.386610515951	524.241271197986	372.848091541252	873.488880299573	453.908084113073	360.886229541295	818.765906930835	320.625268979870	306.632084385186	909.215131171777	227.739576262669	366.619976319006	704.715216419004	394.022152451717	579.467262458594	626.217602050125	297.969212130299	643.293423303678	651.922652062833	200.512016340524	577.332077952315	500.443691755724	43.349208454717	549.121079914703	672.050927487032	95.990908045014	584.066592944903	583.553724529316	36.003486082096	623.366914542579	791.680570252406	42.360761342333	613.775076457094	835.485116264001	42.743740228213	401.896364711565	914.328396948814	50.531394266746	326.934400966514	977.293830276987	133.503561199980	348.941761948548	1113.683331460833	114.777121563670	333.555514947900	597.021223906501	1092.835014526243	227.850641723275	601.259932762653	832.974193605846	214.652628789927	840.047987711835	1101.104253820479	778.076035325928	1076.609518386528	1049.566231966966	700.079471419260	
